<svg width="10" height="10" viewBox="0 0 10 10" fill="none" xmlns="http://www.w3.org/2000/svg">
<path d="M4.33331 5.66667H0.99998C0.811091 5.66667 0.652757 5.60278 0.52498 5.475C0.397202 5.34722 0.333313 5.18889 0.333313 5C0.333313 4.81111 0.397202 4.65278 0.52498 4.525C0.652757 4.39722 0.811091 4.33333 0.99998 4.33333H4.33331V0.999999C4.33331 0.81111 4.3972 0.652777 4.52498 0.524999C4.65276 0.397221 4.81109 0.333332 4.99998 0.333332C5.18887 0.333332 5.3472 0.397221 5.47498 0.524999C5.60276 0.652777 5.66665 0.81111 5.66665 0.999999V4.33333H8.99998C9.18887 4.33333 9.3472 4.39722 9.47498 4.525C9.60276 4.65278 9.66665 4.81111 9.66665 5C9.66665 5.18889 9.60276 5.34722 9.47498 5.475C9.3472 5.60278 9.18887 5.66667 8.99998 5.66667H5.66665V9C5.66665 9.18889 5.60276 9.34722 5.47498 9.475C5.3472 9.60278 5.18887 9.66667 4.99998 9.66667C4.81109 9.66667 4.65276 9.60278 4.52498 9.475C4.3972 9.34722 4.33331 9.18889 4.33331 9V5.66667Z" fill="#828282"/>
</svg>
