<svg width="119" height="109" viewBox="0 0 119 109" fill="none" xmlns="http://www.w3.org/2000/svg">
<path d="M79.9863 40.4493C71.6063 40.4493 63.0963 40.1092 55.1263 37.8892C47.3063 35.7092 40.1263 31.5092 33.7263 26.6392C29.5263 23.4592 25.7263 20.9392 20.2763 21.3192C14.9605 21.5973 9.87439 23.5743 5.76627 26.9592C-1.16373 33.0192 -0.113725 44.2293 2.64627 52.1093C6.81627 63.9793 19.4663 72.2293 30.2363 77.5993C42.6663 83.8092 56.3163 87.4492 70.0163 89.4492C82.0163 91.2793 97.4263 92.5992 107.826 84.7592C117.386 77.5592 120.006 61.1193 117.666 50.0193C117.098 46.738 115.348 43.7784 112.746 41.6993C106.036 36.7893 96.0263 40.0693 88.4863 40.2292C85.6863 40.3293 82.8463 40.4493 79.9863 40.4493Z" fill="#F2F2F2"/>
<path d="M59.4959 108.951C79.7703 108.951 96.2059 107.926 96.2059 106.661C96.2059 105.396 79.7703 104.371 59.4959 104.371C39.2215 104.371 22.7859 105.396 22.7859 106.661C22.7859 107.926 39.2215 108.951 59.4959 108.951Z" fill="#F2F2F2"/>
<path d="M111.965 26.2881C112.506 26.2881 112.945 25.8494 112.945 25.3081C112.945 24.7669 112.506 24.3281 111.965 24.3281C111.424 24.3281 110.985 24.7669 110.985 25.3081C110.985 25.8494 111.424 26.2881 111.965 26.2881Z" fill="#CFCFCF"/>
<path d="M69.7054 19.3077C70.2466 19.3077 70.6854 18.8689 70.6854 18.3277C70.6854 17.7864 70.2466 17.3477 69.7054 17.3477C69.1641 17.3477 68.7254 17.7864 68.7254 18.3277C68.7254 18.8689 69.1641 19.3077 69.7054 19.3077Z" fill="#CFCFCF"/>
<path d="M30.5652 82.8477V87.1477" stroke="#BABABA" stroke-linecap="round" stroke-linejoin="round"/>
<path d="M28.4148 85H32.7148" stroke="#BABABA" stroke-linecap="round" stroke-linejoin="round"/>
<path d="M14.7957 1V5.3" stroke="#BABABA" stroke-linecap="round" stroke-linejoin="round"/>
<path d="M12.6355 3.14844H16.9455" stroke="#BABABA" stroke-linecap="round" stroke-linejoin="round"/>
<path d="M92.7449 23.1484V27.4584" stroke="#BABABA" stroke-linecap="round" stroke-linejoin="round"/>
<path d="M90.5965 25.3086H94.8965" stroke="#BABABA" stroke-linecap="round" stroke-linejoin="round"/>
<path d="M53.8257 80.7299C58.4454 87.1886 65.4374 91.5522 73.269 92.8643C81.1007 94.1765 89.1331 92.3301 95.6057 87.7299C96.4056 87.1622 97.1766 86.5548 97.9157 85.9099L109.846 89.5199L105.276 76.1699C107.557 71.3946 108.534 66.1008 108.109 60.8257C107.683 55.5506 105.87 50.482 102.852 46.1342C99.8351 41.7864 95.7214 38.3141 90.9286 36.0697C86.1359 33.8253 80.8347 32.8887 75.5631 33.3549C70.2915 33.8211 65.237 35.6735 60.9125 38.7242C56.5881 41.7749 53.1475 45.9152 50.9401 50.7251C48.7327 55.535 47.8369 60.8432 48.3437 66.1111C48.8505 71.379 50.7418 76.419 53.8257 80.7199V80.7299Z" fill="white" stroke="#BABABA" stroke-linecap="round" stroke-linejoin="round"/>
<path d="M88.596 65.3077C89.6895 65.3077 90.576 64.4212 90.576 63.3277C90.576 62.2341 89.6895 61.3477 88.596 61.3477C87.5025 61.3477 86.616 62.2341 86.616 63.3277C86.616 64.4212 87.5025 65.3077 88.596 65.3077Z" fill="#BABABA"/>
<path d="M79.0452 65.3077C80.1387 65.3077 81.0252 64.4212 81.0252 63.3277C81.0252 62.2341 80.1387 61.3477 79.0452 61.3477C77.9517 61.3477 77.0652 62.2341 77.0652 63.3277C77.0652 64.4212 77.9517 65.3077 79.0452 65.3077Z" fill="#BABABA"/>
<path d="M69.5062 65.3077C70.5997 65.3077 71.4862 64.4212 71.4862 63.3277C71.4862 62.2341 70.5997 61.3477 69.5062 61.3477C68.4126 61.3477 67.5262 62.2341 67.5262 63.3277C67.5262 64.4212 68.4126 65.3077 69.5062 65.3077Z" fill="#BABABA"/>
<path d="M63.6047 60.3175C58.985 66.7762 51.9931 71.1398 44.1614 72.452C36.3298 73.7641 28.2973 71.9178 21.8247 67.3175C21.0225 66.753 20.2513 66.1454 19.5147 65.4975L7.58475 69.1275L12.1547 55.7675C9.87352 50.9922 8.89612 45.6984 9.32172 40.4234C9.74731 35.1483 11.5608 30.0797 14.578 25.7319C17.5953 21.384 21.709 17.9118 26.5018 15.6674C31.2945 13.423 36.5957 12.4864 41.8673 12.9526C47.1389 13.4188 52.1934 15.2712 56.5179 18.3219C60.8424 21.3725 64.2829 25.5129 66.4903 30.3227C68.6977 35.1326 69.5935 40.4408 69.0867 45.7087C68.5799 50.9766 66.6886 56.0167 63.6047 60.3175Z" fill="white" stroke="#BABABA" stroke-linecap="round" stroke-linejoin="round"/>
<path d="M30.6863 48.7302C31.5737 47.2313 32.8329 45.9868 34.3421 45.1172C35.8513 44.2475 37.5594 43.7821 39.3012 43.7661C41.043 43.75 42.7594 44.1837 44.2844 45.0253C45.8094 45.8669 47.0914 47.0879 48.0063 48.5702" stroke="#BABABA" stroke-linecap="round" stroke-linejoin="round"/>
<path d="M50.5553 39.9411C51.334 39.9411 51.9653 39.3098 51.9653 38.5311C51.9653 37.7524 51.334 37.1211 50.5553 37.1211C49.7766 37.1211 49.1453 37.7524 49.1453 38.5311C49.1453 39.3098 49.7766 39.9411 50.5553 39.9411Z" fill="#BABABA"/>
<path d="M28.2155 39.9411C28.9942 39.9411 29.6255 39.3098 29.6255 38.5311C29.6255 37.7524 28.9942 37.1211 28.2155 37.1211C27.4367 37.1211 26.8055 37.7524 26.8055 38.5311C26.8055 39.3098 27.4367 39.9411 28.2155 39.9411Z" fill="#BABABA"/>
</svg>
