<svg width="20" height="20" viewBox="0 0 20 20" fill="none" xmlns="http://www.w3.org/2000/svg">
<path d="M14.1667 11.1669V13.6669C14.1667 17.0002 12.8334 18.3335 9.50002 18.3335H6.33335C3.00002 18.3335 1.66669 17.0002 1.66669 13.6669V10.5002C1.66669 7.16688 3.00002 5.83354 6.33335 5.83354H8.83335" stroke="#666666" stroke-width="1.5" stroke-linecap="round" stroke-linejoin="round"/>
<path d="M14.1663 11.1669H11.4997C9.49967 11.1669 8.83301 10.5002 8.83301 8.50021V5.83354L14.1663 11.1669Z" stroke="#666666" stroke-width="1.5" stroke-linecap="round" stroke-linejoin="round"/>
<path d="M9.66632 1.66689H12.9997" stroke="#666666" stroke-width="1.5" stroke-linecap="round" stroke-linejoin="round"/>
<path d="M5.83331 4.16689C5.83331 2.78355 6.94998 1.66689 8.33331 1.66689H10.5166" stroke="#666666" stroke-width="1.5" stroke-linecap="round" stroke-linejoin="round"/>
<path d="M18.3329 6.66689V11.8252C18.3329 13.1169 17.2829 14.1669 15.9912 14.1669" stroke="#666666" stroke-width="1.5" stroke-linecap="round" stroke-linejoin="round"/>
<path d="M18.3333 6.66689H15.8333C13.9583 6.66689 13.3333 6.04189 13.3333 4.16689V1.66689L18.3333 6.66689Z" stroke="#666666" stroke-width="1.5" stroke-linecap="round" stroke-linejoin="round"/>
</svg>
