<svg width="20" height="20" viewBox="0 0 20 20" fill="none" xmlns="http://www.w3.org/2000/svg">
<path d="M7.63381 9.05855C7.55048 9.05022 7.45048 9.05022 7.35881 9.05855C5.37548 8.99189 3.80048 7.36689 3.80048 5.36689C3.80048 3.32522 5.45048 1.66689 7.50048 1.66689C9.54214 1.66689 11.2005 3.32522 11.2005 5.36689C11.1921 7.36689 9.61714 8.99189 7.63381 9.05855Z" stroke="#666666" stroke-width="1.5" stroke-linecap="round" stroke-linejoin="round"/>
<path d="M13.6744 3.33354C15.2911 3.33354 16.5911 4.64188 16.5911 6.25021C16.5911 7.82521 15.3411 9.10854 13.7828 9.16688C13.7161 9.15854 13.6411 9.15854 13.5661 9.16688" stroke="#666666" stroke-width="1.5" stroke-linecap="round" stroke-linejoin="round"/>
<path d="M3.46727 12.1335C1.45061 13.4835 1.45061 15.6835 3.46727 17.0252C5.75894 18.5585 9.51727 18.5585 11.8089 17.0252C13.8256 15.6752 13.8256 13.4752 11.8089 12.1335C9.52561 10.6085 5.76727 10.6085 3.46727 12.1335Z" stroke="#666666" stroke-width="1.5" stroke-linecap="round" stroke-linejoin="round"/>
<path d="M15.2833 16.6669C15.8833 16.5419 16.45 16.3002 16.9167 15.9419C18.2167 14.9669 18.2167 13.3586 16.9167 12.3836C16.4583 12.0336 15.9 11.8002 15.3083 11.6669" stroke="#666666" stroke-width="1.5" stroke-linecap="round" stroke-linejoin="round"/>
</svg>
