<svg width="10" height="10" viewBox="0 0 10 10" fill="none" xmlns="http://www.w3.org/2000/svg">
<path d="M5.86337 0.756686L6.74337 2.51669C6.86337 2.76169 7.18337 2.99669 7.45337 3.04169L9.04837 3.30669C10.0684 3.47669 10.3084 4.21669 9.57337 4.94669L8.33337 6.18669C8.12337 6.39669 8.00837 6.80169 8.07337 7.09169L8.42837 8.62669C8.70837 9.84169 8.06337 10.3117 6.98837 9.67669L5.49337 8.79169C5.22337 8.63169 4.77837 8.63169 4.50337 8.79169L3.00837 9.67669C1.93837 10.3117 1.28837 9.83669 1.56837 8.62669L1.92337 7.09169C1.98837 6.80169 1.87337 6.39669 1.66337 6.18669L0.423368 4.94669C-0.306632 4.21669 -0.0716323 3.47669 0.948368 3.30669L2.54337 3.04169C2.80837 2.99669 3.12837 2.76169 3.24837 2.51669L4.12837 0.756686C4.60837 -0.198314 5.38837 -0.198314 5.86337 0.756686Z" fill="#F5BF54"/>
</svg>
