<svg width="20" height="20" viewBox="0 0 20 20" fill="none" xmlns="http://www.w3.org/2000/svg">
<path d="M1.66669 8.33353V11.6669C1.66669 13.3335 2.50002 14.1669 4.16669 14.1669H5.35835C5.66669 14.1669 5.97502 14.2585 6.24169 14.4169L8.67502 15.9419C10.775 17.2585 12.5 16.3002 12.5 13.8252V6.1752C12.5 3.69187 10.775 2.74187 8.67502 4.05853L6.24169 5.58353C5.97502 5.74187 5.66669 5.83353 5.35835 5.83353H4.16669C2.50002 5.83353 1.66669 6.66687 1.66669 8.33353Z" stroke="#666666" stroke-width="1.5"/>
<path d="M15 6.66687C16.4833 8.64187 16.4833 11.3585 15 13.3335" stroke="#666666" stroke-width="1.5" stroke-linecap="round" stroke-linejoin="round"/>
<path d="M16.525 4.58356C18.9334 7.79189 18.9334 12.2086 16.525 15.4169" stroke="#666666" stroke-width="1.5" stroke-linecap="round" stroke-linejoin="round"/>
</svg>
